<svg width="54" height="54" viewBox="0 0 54 54" fill="none" xmlns="http://www.w3.org/2000/svg">
<g filter="url(#filter0_d_604_2878)">
<path fill-rule="evenodd" clip-rule="evenodd" d="M33.5145 8.27185L30.1818 4.93911C28.4244 3.18176 25.5752 3.18175 23.8178 4.93911L20.4851 8.27185H15.7719C13.2866 8.27185 11.2719 10.2866 11.2719 12.7718V17.4851L7.93911 20.8178C6.18176 22.5751 6.18175 25.4244 7.93911 27.1818L11.2719 30.5145V35.2277C11.2719 37.713 13.2866 39.7277 15.7719 39.7277H20.4851L23.8178 43.0604C25.5752 44.8178 28.4244 44.8178 30.1818 43.0604L33.5145 39.7277H38.2277C40.713 39.7277 42.7277 37.713 42.7277 35.2277V30.5145L46.0604 27.1818C47.8178 25.4244 47.8178 22.5752 46.0604 20.8178L42.7277 17.4851V12.7719C42.7277 10.2866 40.713 8.27185 38.2277 8.27185H33.5145ZM31.8325 10.8325C32.1138 11.1138 32.4954 11.2719 32.8932 11.2719H38.2277C39.0561 11.2719 39.7277 11.9434 39.7277 12.7719V18.1064C39.7277 18.5042 39.8857 18.8857 40.167 19.167L43.9391 22.9391C44.5249 23.5249 44.5249 24.4746 43.9391 25.0604L40.167 28.8325C39.8857 29.1138 39.7277 29.4953 39.7277 29.8932V35.2277C39.7277 36.0561 39.0561 36.7277 38.2277 36.7277H32.8932C32.4953 36.7277 32.1138 36.8857 31.8325 37.167L28.0604 40.9391C27.4746 41.5249 26.5249 41.5249 25.9391 40.9391L22.167 37.167C21.8857 36.8857 21.5042 36.7277 21.1064 36.7277H15.7719C14.9434 36.7277 14.2719 36.0561 14.2719 35.2277V29.8932C14.2719 29.4953 14.1138 29.1138 13.8325 28.8325L10.0604 25.0604C9.47465 24.4746 9.47465 23.5249 10.0604 22.9391L13.8325 19.167C14.1138 18.8857 14.2719 18.5042 14.2719 18.1064V12.7718C14.2719 11.9434 14.9434 11.2719 15.7719 11.2719H21.1064C21.5042 11.2719 21.8857 11.1138 22.167 10.8325L25.9391 7.06043C26.5249 6.47465 27.4746 6.47465 28.0604 7.06043L31.8325 10.8325Z" fill="white"/>
<path d="M32.8932 11.2719C32.4954 11.2719 32.1138 11.1138 31.8325 10.8325L28.0604 7.06043C27.4747 6.47465 26.5249 6.47465 25.9391 7.06043L22.167 10.8325C21.8857 11.1138 21.5042 11.2719 21.1064 11.2719H15.7719C14.9434 11.2719 14.2719 11.9434 14.2719 12.7718V18.1064C14.2719 18.5042 14.1138 18.8857 13.8325 19.167L10.0604 22.9391C9.47465 23.5249 9.47465 24.4746 10.0604 25.0604L13.8325 28.8325C14.1138 29.1138 14.2719 29.4953 14.2719 29.8932V35.2277C14.2719 36.0561 14.9434 36.7277 15.7719 36.7277H21.1064C21.5042 36.7277 21.8857 36.8857 22.167 37.167L25.9391 40.9391C26.5249 41.5249 27.4747 41.5249 28.0604 40.9391L31.8325 37.167C32.1138 36.8857 32.4954 36.7277 32.8932 36.7277H38.2277C39.0561 36.7277 39.7277 36.0561 39.7277 35.2277V29.8932C39.7277 29.4953 39.8857 29.1138 40.167 28.8325L43.9391 25.0604C44.5249 24.4746 44.5249 23.5249 43.9391 22.9391L40.167 19.167C39.8857 18.8857 39.7277 18.5042 39.7277 18.1064V12.7719C39.7277 11.9434 39.0561 11.2719 38.2277 11.2719H32.8932Z" fill="#375DFB"/>
<path fill-rule="evenodd" clip-rule="evenodd" d="M35.0627 20.0617L25.0021 30.1224L19.9414 25.0617L22.0627 22.9404L25.0021 25.8798L32.9414 17.9404L35.0627 20.0617Z" fill="white"/>
</g>
<defs>
<filter id="filter0_d_604_2878" x="-2.95" y="-2.975" width="59.9" height="59.9" filterUnits="userSpaceOnUse" color-interpolation-filters="sRGB">
<feFlood flood-opacity="0" result="BackgroundImageFix"/>
<feColorMatrix in="SourceAlpha" type="matrix" values="0 0 0 0 0 0 0 0 0 0 0 0 0 0 0 0 0 0 127 0" result="hardAlpha"/>
<feOffset dy="2.975"/>
<feGaussianBlur stdDeviation="2.975"/>
<feColorMatrix type="matrix" values="0 0 0 0 0.105882 0 0 0 0 0.109804 0 0 0 0 0.113725 0 0 0 0.04 0"/>
<feBlend mode="normal" in2="BackgroundImageFix" result="effect1_dropShadow_604_2878"/>
<feBlend mode="normal" in="SourceGraphic" in2="effect1_dropShadow_604_2878" result="shape"/>
</filter>
</defs>
</svg>
