<svg width="22" height="22" viewBox="0 0 22 22" fill="none" xmlns="http://www.w3.org/2000/svg">
<g filter="url(#filter0_d_175_12)">
<path fill-rule="evenodd" clip-rule="evenodd" d="M13.8058 3.30879L12.4727 1.97569C11.7698 1.27275 10.6301 1.27275 9.92716 1.97569L8.59406 3.30879H6.70878C5.71467 3.30879 4.90878 4.11468 4.90878 5.10879V6.99407L3.57569 8.32717C2.87274 9.03011 2.87274 10.1698 3.57568 10.8728L4.90878 12.2058V14.0911C4.90878 15.0852 5.71467 15.8911 6.70878 15.8911H8.59406L9.92716 17.2242C10.6301 17.9272 11.7698 17.9272 12.4727 17.2242L13.8058 15.8911H15.6911C16.6852 15.8911 17.4911 15.0852 17.4911 14.0911V12.2058L18.8242 10.8728C19.5272 10.1698 19.5272 9.03011 18.8242 8.32717L17.4911 6.99407V5.10879C17.4911 4.11468 16.6852 3.30879 15.6911 3.30879H13.8058ZM13.133 4.33305C13.2456 4.44558 13.3982 4.50879 13.5573 4.50879H15.6911C16.0225 4.50879 16.2911 4.77742 16.2911 5.10879V7.2426C16.2911 7.40173 16.3543 7.55434 16.4669 7.66686L17.9757 9.17569C18.21 9.41001 18.21 9.78991 17.9757 10.0242L16.4669 11.5331C16.3543 11.6456 16.2911 11.7982 16.2911 11.9573V14.0911C16.2911 14.4225 16.0225 14.6911 15.6911 14.6911H13.5573C13.3982 14.6911 13.2456 14.7543 13.133 14.8669L11.6242 16.3757C11.3899 16.61 11.01 16.61 10.7757 16.3757L9.26685 14.8669C9.15433 14.7543 9.00172 14.6911 8.84259 14.6911H6.70878C6.37741 14.6911 6.10878 14.4225 6.10878 14.0911V11.9573C6.10878 11.7982 6.04557 11.6456 5.93304 11.5331L4.42421 10.0242C4.1899 9.78991 4.1899 9.41001 4.42421 9.17569L5.93304 7.66686C6.04557 7.55434 6.10878 7.40173 6.10878 7.2426V5.10879C6.10878 4.77742 6.37741 4.50879 6.70878 4.50879H8.84259C9.00172 4.50879 9.15433 4.44558 9.26685 4.33305L10.7757 2.82422C11.01 2.58991 11.3899 2.58991 11.6242 2.82422L13.133 4.33305Z" fill="white"/>
<path d="M13.5573 4.50874C13.3981 4.50874 13.2455 4.44553 13.133 4.333L11.6242 2.82417C11.3899 2.58986 11.01 2.58986 10.7757 2.82417L9.26682 4.333C9.1543 4.44553 9.00169 4.50874 8.84256 4.50874H6.70875C6.37738 4.50874 6.10875 4.77737 6.10875 5.10874V7.24255C6.10875 7.40168 6.04553 7.55429 5.93301 7.66681L4.42418 9.17565C4.18987 9.40996 4.18986 9.78986 4.42418 10.0242L5.93301 11.533C6.04553 11.6455 6.10875 11.7981 6.10875 11.9573V14.0911C6.10875 14.4224 6.37738 14.6911 6.70875 14.6911H8.84256C9.00169 14.6911 9.1543 14.7543 9.26682 14.8668L10.7757 16.3756C11.01 16.61 11.3899 16.61 11.6242 16.3756L13.133 14.8668C13.2455 14.7543 13.3981 14.6911 13.5573 14.6911H15.6911C16.0225 14.6911 16.2911 14.4225 16.2911 14.0911V11.9573C16.2911 11.7981 16.3543 11.6455 16.4668 11.533L17.9757 10.0242C18.21 9.78986 18.21 9.40996 17.9757 9.17565L16.4668 7.66681C16.3543 7.55429 16.2911 7.40168 16.2911 7.24255V5.10874C16.2911 4.77737 16.0225 4.50874 15.6911 4.50874H13.5573Z" fill="#B071EC"/>
<path fill-rule="evenodd" clip-rule="evenodd" d="M14.4242 8.02431L10.4 12.0486L8.37569 10.0243L9.22421 9.17578L10.4 10.3515L13.5757 7.17578L14.4242 8.02431Z" fill="white"/>
</g>
<defs>
<filter id="filter0_d_175_12" x="-0.799994" y="-1.2" width="24" height="24" filterUnits="userSpaceOnUse" color-interpolation-filters="sRGB">
<feFlood flood-opacity="0" result="BackgroundImageFix"/>
<feColorMatrix in="SourceAlpha" type="matrix" values="0 0 0 0 0 0 0 0 0 0 0 0 0 0 0 0 0 0 127 0" result="hardAlpha"/>
<feOffset dy="1.2"/>
<feGaussianBlur stdDeviation="1.2"/>
<feColorMatrix type="matrix" values="0 0 0 0 0.105882 0 0 0 0 0.109804 0 0 0 0 0.113725 0 0 0 0.04 0"/>
<feBlend mode="normal" in2="BackgroundImageFix" result="effect1_dropShadow_175_12"/>
<feBlend mode="normal" in="SourceGraphic" in2="effect1_dropShadow_175_12" result="shape"/>
</filter>
</defs>
</svg>
